<?xml version="1.0" ?>
<svg fill="none" height="24" viewBox="0 0 24 24" width="24" xmlns="http://www.w3.org/2000/svg">
  <path clip-rule="evenodd"
        d="M17.0786 8.43715L17.6443 6.45725L15.6644 7.02293L9.94976 12.7376L11.364 14.1518L17.0786 8.43715ZM14.8658 5.17107C14.7024 5.21776 14.5536 5.30532 14.4334 5.42549L8.53554 11.3234L7.82843 10.6163C7.4379 10.2258 6.80474 10.2258 6.41421 10.6163L4.29289 12.7376C3.90237 13.1281 3.90237 13.7613 4.29289 14.1518L6.41423 16.2732L5 17.6874C4.60948 18.0779 4.60948 18.7111 5 19.1016C5.39052 19.4921 6.02369 19.4921 6.41421 19.1016L7.82843 17.6874L9.94975 19.8087C10.3403 20.1992 10.9734 20.1992 11.364 19.8087L13.4853 17.6873C13.8758 17.2968 13.8758 16.6637 13.4853 16.2731L12.7782 15.566L18.6761 9.66813C18.7962 9.54796 18.8838 9.39915 18.9305 9.23574L20.0619 5.27595C20.2774 4.52159 19.58 3.82417 18.8256 4.0397L14.8658 5.17107ZM7.12132 12.7376L6.41421 13.4447L10.6569 17.6873L11.364 16.9802L7.12132 12.7376Z"
        fill="#452a8d" fill-rule="evenodd"/>
</svg>
