<?xml version="1.0" ?>
<svg fill="#4498ca" enable-background="new 0 0 52 52" id="Layer_1" version="1.1" viewBox="0 0 52 52"
     xml:space="preserve" xmlns="http://www.w3.org/2000/svg" xmlns:xlink="http://www.w3.org/1999/xlink"><g><path d="M46.9900093,14.4100342c0.3800049,13.9699707-7.5400391,24.3199463-12.2999878,29.25   c-3.4500103,3.5699463-7.1800518,6.2699585-8.6800518,6.2799683H26.000021   c-1.5100098-0.0100098-5.2400513-2.710022-8.6799927-6.2799683c-4.7600107-4.9300537-12.6900024-15.2800293-12.3100586-29.25   c0.0200195-0.4500122,0.3400269-0.8400269,0.7800293-0.9400024l0.7700195-0.1800537   c6.5999751-1.4599609,8.1499634-4.6299438,10.0999756-8.6399536c0.3300171-0.6700439,0.6600342-1.3600464,1.0300293-2.0599976   c0.1699829-0.3200073,0.5099487-0.5300293,0.8800049-0.5300293h14.8599834c0.3699951,0,0.7099609,0.210022,0.8800049,0.5300293   c0.3699951,0.6999512,0.6999512,1.3899536,1.0299683,2.0599976c1.960022,4.0100098,3.5,7.1799927,10.1000366,8.6399536   l0.7699585,0.1800537C46.6599922,13.5700073,46.9799995,13.960022,46.9900093,14.4100342z"/></g></svg>
