<?xml version="1.0" ?>
<svg fill="#46d1b1" enable-background="new 0 0 24 24" id="Layer_1" version="1.1" viewBox="0 0 24 24"
     xml:space="preserve"
     xmlns="http://www.w3.org/2000/svg" xmlns:xlink="http://www.w3.org/1999/xlink"><path d="M23,9c0-0.9375-0.3095703-1.7163086-0.8945313-2.2519531C21.5708008,6.2587891,20.8432617,6,20.0014648,6H20  c-0.977478,0.0003662-2.3011475,0.7004395-3.6087646,1.6087646C17.2995605,6.3011475,17.9996338,4.977478,18,4  c0.0004883-0.8422852-0.2583008-1.5703125-0.7480469-2.1054688C16.7163086,1.3095703,15.9375,1,15,1  c-1.0004883,0-2.2553711,0.6904297-3,1.3139648C11.2553711,1.6904297,10.0004883,1,9,1C7.1782227,1,6.0004883,2.1777344,6,3.9995117  C5.9994507,4.9763184,6.699585,6.3001709,7.6082153,7.6082153C6.3007813,6.6999512,4.9775391,6,4.0009766,6C4.0004883,6,4,6,4,6  C2.1777344,6.0004883,1,7.1782227,1,9c0,1.0004883,0.6904297,2.2553711,1.3139648,3C1.6904297,12.7446289,1,13.9995117,1,15  c0,1.8222656,1.1777344,3,3,3c0.9771118,0,2.3006592-0.6999512,3.6082153-1.6082153C6.6999512,17.6993408,6,19.0228882,6,20  c0,1.8222656,1.1777344,3,3,3c1.0004883,0,2.2553711-0.6904297,3-1.3139648C12.7446289,22.3095703,13.9995117,23,15,23  c1.8217773,0,2.9995117-1.1777344,3-2.9995117c0.0002441-0.4745483-0.1687012-1.0325928-0.4424438-1.6293335  c1.2005615,1.2537231,2.5142822,2.7872314,3.5186157,4.3939819C21.1708984,22.9169922,21.3339844,23,21.5004883,23  c0.090332,0,0.1821289-0.0244141,0.2646484-0.0761719c0.2338867-0.1459961,0.3051758-0.4545898,0.1586914-0.6889648  c-1.1399536-1.8241577-2.6324463-3.5319214-3.9425049-4.8720093C18.723938,17.7484741,19.4232178,18.0001221,19.9990234,18  C19.9995117,18,20,18,20,18c1.8222656-0.0004883,3-1.1782227,3-3c0-1.0004883-0.6904297-2.2553711-1.3139648-3  C22.3095703,11.2553711,23,10.0004883,23,9z"/>
  <g/>
  <g/>
  <g/>
  <g/>
  <g/>
  <g/>
  <g/>
  <g/>
  <g/>
  <g/>
  <g/>
  <g/>
  <g/>
  <g/>
  <g/></svg>
